<?xml version="1.0" encoding="UTF-8" standalone="no"?>
<svg
   version="1.0"
   width="555.12885pt"
   height="238.10124pt"
   viewBox="0 0 555.12885 238.10124"
   preserveAspectRatio="xMidYMid"
   id="svg6"
   xmlns:xlink="http://www.w3.org/1999/xlink"
   xmlns="http://www.w3.org/2000/svg"
   xmlns:svg="http://www.w3.org/2000/svg">
  <defs
     id="defs10">
    <rect
       x="304.94571"
       y="98.817856"
       width="520.33777"
       height="219.25211"
       id="rect1590" />
    <linearGradient
       id="linearGradient5371">
      <stop
         style="stop-color:#2548be;stop-opacity:1;"
         offset="0.20445545"
         id="stop5375" />
      <stop
         style="stop-color:#2596be;stop-opacity:1;"
         offset="0.8019802"
         id="stop5367" />
    </linearGradient>
    <linearGradient
       id="linearGradient3053">
      <stop
         style="stop-color:#120075;stop-opacity:1;"
         offset="0"
         id="stop3051" />
    </linearGradient>
    <linearGradient
       id="linearGradient3033">
      <stop
         style="stop-color:#14007e;stop-opacity:1;"
         offset="0"
         id="stop3031" />
    </linearGradient>
    <linearGradient
       xlink:href="#linearGradient5371"
       id="linearGradient5373"
       x1="1964"
       y1="2954.5"
       x2="4035"
       y2="2954.5"
       gradientUnits="userSpaceOnUse" />
  </defs>
  <g
     transform="matrix(-0.05,-0.08660254,-0.08660254,0.05,508.96734,231.17163)"
     fill="#2596be"
     stroke="none"
     id="g4">
    <path
       d="m 2730,3986 v -312 l -215,-123 -270,157 -276,-159 6,-314 260,-151 V 2827 L 1970,2675 V 2362 L 2250.4279,2202.0886 2520,2364 v 313 l 213.1885,118 3.8115,315 265,149 263,-145 5,-319 -265,-151 -6,-252 -269,-155 5,-319 263,-148 272,152 v 313 l 216,124 273,-157 270,153 v 320 l -264,151 -6,252 271,154 v 316 l -271,152 -268,-151 -220,126 -6,317 -260,147 z"
       id="path210"
       style="opacity:1;fill:url(#linearGradient5373);fill-opacity:1;fill-rule:nonzero;stroke:none;stroke-width:10;stroke-linecap:butt;stroke-linejoin:round;stroke-dasharray:none;stroke-opacity:1;paint-order:markers fill stroke" />
    <path
       id="text1588"
       style="font-style:normal;font-variant:normal;font-weight:normal;font-stretch:normal;font-size:138.24px;font-family:'Aldo the Apache';-inkscape-font-specification:'Aldo the Apache, Normal';font-variant-ligatures:normal;font-variant-caps:normal;font-variant-numeric:normal;font-variant-east-asian:normal;white-space:pre;shape-inside:url(#rect1590);display:inline;fill:#2548be;fill-opacity:1;stroke-width:1.33333;stroke-linejoin:round;paint-order:markers fill stroke"
       d="m 322.9003,140.64811 -14.57996,13.43172 v 84.17298 h 44.01073 l 13.49951,-13.50045 v -16.8751 h -20.5209 v 11.88003 H 328.8397 l 1e-5,-60.54675 h 16.46997 v 18.29116 h 20.5209 v -36.85359 z m 51.09793,0 v 97.6047 h 49.07171 v -18.49552 h -28.61968 v -79.10918 z m 57.84693,0 -1e-5,24.02953 h 20.45203 l 10e-6,-24.02953 z m 28.01211,0 v 97.6047 h 18.90022 v -60.7511 l 15.18751,60.7511 h 6.07562 l 15.18752,-60.7511 v 60.7511 h 18.90022 l 1e-5,-97.6047 h -23.62605 l -13.4995,48.5998 -13.4995,-48.5998 z m 100.03498,0 -15.72621,15.45724 -10e-6,82.14746 h 20.51937 v -32.06288 h 17.41422 v 32.06288 h 20.45356 l 10e-6,-97.6047 z m 51.77283,0 v 18.56244 h 19.10223 v 79.04226 h 20.58823 l 10e-6,-79.04226 h 18.42733 v -18.56244 z m -46.97968,18.56244 h 17.41423 l -1e-5,28.41694 H 564.6854 Z m -132.84025,11.4062 v 67.63606 h 20.45203 v -67.63606 z"
       transform="matrix(-4.785875,-8.2893788,-7.0146117,4.0498872,4790.4494,4103.9843)" />
  </g>
</svg>
