<?xml version="1.0" encoding="UTF-8" standalone="no"?>
<svg
   version="1.0"
   width="206.11366pt"
   height="238.10124pt"
   viewBox="0 0 206.11366 238.10124"
   preserveAspectRatio="xMidYMid"
   id="svg6"
   sodipodi:docname="design.svg"
   inkscape:version="1.2 (dc2aedaf03, 2022-05-15)"
   inkscape:export-filename="logo.png"
   inkscape:export-xdpi="96"
   inkscape:export-ydpi="96"
   xmlns:inkscape="http://www.inkscape.org/namespaces/inkscape"
   xmlns:sodipodi="http://sodipodi.sourceforge.net/DTD/sodipodi-0.dtd"
   xmlns:xlink="http://www.w3.org/1999/xlink"
   xmlns="http://www.w3.org/2000/svg"
   xmlns:svg="http://www.w3.org/2000/svg">
  <defs
     id="defs10">
    <inkscape:path-effect
       effect="fillet_chamfer"
       id="path-effect487"
       is_visible="true"
       lpeversion="1"
       nodesatellites_param="F,0,0,1,0,18.75,0,1 @ F,0,0,1,0,18.75,0,1 @ F,0,0,1,0,18.75,0,1 @ F,0,0,1,0,18.75,0,1"
       unit="px"
       method="auto"
       mode="F"
       radius="25"
       chamfer_steps="1"
       flexible="false"
       use_knot_distance="true"
       apply_no_radius="true"
       apply_with_radius="true"
       only_selected="false"
       hide_knots="false" />
    <linearGradient
       id="linearGradient4945"
       inkscape:swatch="solid">
      <stop
         style="stop-color:#000000;stop-opacity:1;"
         offset="0"
         id="stop4943" />
    </linearGradient>
    <linearGradient
       inkscape:collect="always"
       id="linearGradient5371">
      <stop
         style="stop-color:#2548be;stop-opacity:1;"
         offset="0.20445545"
         id="stop5375" />
      <stop
         style="stop-color:#2596be;stop-opacity:1;"
         offset="0.8019802"
         id="stop5367" />
    </linearGradient>
    <linearGradient
       id="linearGradient3053"
       inkscape:swatch="solid">
      <stop
         style="stop-color:#120075;stop-opacity:1;"
         offset="0"
         id="stop3051" />
    </linearGradient>
    <linearGradient
       id="linearGradient3033"
       inkscape:swatch="solid">
      <stop
         style="stop-color:#14007e;stop-opacity:1;"
         offset="0"
         id="stop3031" />
    </linearGradient>
    <linearGradient
       inkscape:collect="always"
       xlink:href="#linearGradient5371"
       id="linearGradient5373"
       x1="1964"
       y1="2954.5"
       x2="4035"
       y2="2954.5"
       gradientUnits="userSpaceOnUse" />
  </defs>
  <sodipodi:namedview
     id="namedview8"
     pagecolor="#000000"
     bordercolor="#ffffff"
     borderopacity="1"
     inkscape:showpageshadow="false"
     inkscape:pageopacity="1"
     inkscape:pagecheckerboard="true"
     inkscape:deskcolor="#00000e"
     inkscape:document-units="pt"
     showgrid="false"
     inkscape:zoom="0.64765625"
     inkscape:cx="406.07961"
     inkscape:cy="480.193"
     inkscape:window-width="1247"
     inkscape:window-height="1041"
     inkscape:window-x="55"
     inkscape:window-y="0"
     inkscape:window-maximized="0"
     inkscape:current-layer="g463" />
  <g
     id="g463"
     inkscape:label="Climat"
     transform="matrix(-0.05,-0.08660254,-0.08660254,0.05,508.96734,231.17163)"
     sodipodi:insensitive="true">
    <path
       d="m 2730,3986 v -312 l -215,-123 -270,157 -276,-159 6,-314 260,-151 V 2827 L 1970,2675 V 2362 L 2250.4279,2202.0886 2520,2364 v 313 l 213.1885,118 3.8115,315 265,149 263,-145 5,-319 -265,-151 -6,-252 -269,-155 5,-319 263,-148 272,152 v 313 l 216,124 273,-157 270,153 v 320 l -264,151 -6,252 271,154 v 316 l -271,152 -268,-151 -220,126 -6,317 -260,147 z"
       id="path210"
       sodipodi:nodetypes="ccccccccccccccccccccccccccccccccccccccc"
       style="opacity:1;fill:url(#linearGradient5373);fill-opacity:1;fill-rule:nonzero;stroke:none;stroke-width:10;stroke-linecap:butt;stroke-linejoin:round;stroke-dasharray:none;stroke-opacity:1;paint-order:markers fill stroke"
       inkscape:label="ClimatLogo"
       sodipodi:insensitive="true" />
    <g
       id="g537"
       inkscape:label="Pre"
       transform="matrix(-7.6923563,-13.323551,-13.323551,7.6923563,13046.697,8498.5043)"
       sodipodi:insensitive="true"
       inkscape:export-filename=".\g537.svg"
       inkscape:export-xdpi="96"
       inkscape:export-ydpi="96">
      <path
         style="fill:#c20000;fill-opacity:1;stroke:none;stroke-width:1;stroke-linejoin:round;stroke-dasharray:none;stroke-opacity:1;paint-order:fill markers stroke"
         id="path326"
         width="75.376106"
         height="43.230236"
         x="625.2002"
         y="410.44363"
         sodipodi:type="rect"
         inkscape:label="PreTagSprite"
         inkscape:path-effect="#path-effect487"
         d="m 643.9502,410.44363 h 37.8761 a 18.75,18.75 45 0 1 18.75,18.75 v 5.73024 a 18.75,18.75 135 0 1 -18.75,18.75 h -37.8761 a 18.75,18.75 45 0 1 -18.75,-18.75 v -5.73024 a 18.75,18.75 135 0 1 18.75,-18.75 z"
         sodipodi:insensitive="true" />
      <g
         aria-label="PRE"
         transform="scale(0.99424918,1.0057841)"
         id="text330"
         style="font-weight:bold;font-stretch:condensed;font-size:34.2762px;font-family:Arial;-inkscape-font-specification:'Arial, Bold Condensed';stroke-width:0.952117;stroke-linejoin:round;paint-order:markers fill stroke"
         inkscape:label="PreTagText">
        <path
           d="m 640.21543,442.08972 v -24.5356 h 6.5272 q 3.64854,0 4.76989,0.35147 1.79079,0.56904 2.94561,2.42678 1.17155,1.85774 1.17155,4.78662 0,2.66109 -1.00419,4.46862 -1.00419,1.7908 -2.51046,2.5272 -1.50628,0.71967 -5.1883,0.71967 h -2.66109 v 9.25524 z m 4.05021,-20.38496 v 6.96235 h 2.24268 q 2.25942,0 3.06277,-0.31799 0.82008,-0.318 1.33891,-1.13808 0.51883,-0.83682 0.51883,-2.04184 0,-1.22176 -0.53556,-2.05858 -0.53557,-0.83683 -1.32218,-1.12135 -0.78661,-0.28451 -3.33055,-0.28451 z"
           id="path1527" />
        <path
           d="m 658.97696,442.08972 v -24.5356 h 8.55231 q 3.28034,0 4.6862,0.66946 1.40586,0.65272 2.30963,2.29289 0.90377,1.62343 0.90377,3.89959 0,2.87866 -1.38913,4.63599 -1.37238,1.75732 -3.91632,2.2092 1.30544,0.93724 2.159,2.05858 0.85356,1.10461 2.32636,3.98327 l 2.44352,4.78662 h -4.83683 l -2.94561,-5.33892 q -1.58996,-2.8954 -2.159,-3.61507 -0.56903,-0.7364 -1.20502,-1.00418 -0.63598,-0.28452 -2.04184,-0.28452 h -0.83682 v 10.24269 z m 4.05022,-14.15901 h 3.01255 q 2.76151,0 3.51465,-0.23431 0.75314,-0.25105 1.22176,-0.98745 0.46862,-0.73641 0.46862,-1.95817 0,-1.17154 -0.46862,-1.87447 -0.46862,-0.71967 -1.27197,-0.98745 -0.56904,-0.1841 -3.29707,-0.1841 h -3.17992 z"
           id="path1529" />
        <path
           d="m 679.26151,442.08972 v -24.5356 h 14.92889 v 4.15064 h -10.87868 v 5.43933 h 10.1088 v 4.1339 h -10.1088 v 6.67783 h 11.24688 v 4.1339 z"
           id="path1531" />
      </g>
    </g>
  </g>
</svg>
