<?xml version="1.0" encoding="UTF-8" standalone="no"?>
<svg
   version="1.0"
   width="610.19269pt"
   height="257.90494pt"
   viewBox="0 0 610.19269 257.90494"
   preserveAspectRatio="xMidYMid"
   id="svg6"
   xmlns:xlink="http://www.w3.org/1999/xlink"
   xmlns="http://www.w3.org/2000/svg"
   xmlns:svg="http://www.w3.org/2000/svg">
  <defs
     id="defs10">
    <linearGradient
       id="linearGradient4945">
      <stop
         style="stop-color:#000000;stop-opacity:1;"
         offset="0"
         id="stop4943" />
    </linearGradient>
    <rect
       x="304.94571"
       y="98.817856"
       width="520.33777"
       height="219.25211"
       id="rect1590" />
    <linearGradient
       id="linearGradient5371">
      <stop
         style="stop-color:#2548be;stop-opacity:1;"
         offset="0.20445545"
         id="stop5375" />
      <stop
         style="stop-color:#2596be;stop-opacity:1;"
         offset="0.8019802"
         id="stop5367" />
    </linearGradient>
    <linearGradient
       id="linearGradient3053">
      <stop
         style="stop-color:#120075;stop-opacity:1;"
         offset="0"
         id="stop3051" />
    </linearGradient>
    <linearGradient
       id="linearGradient3033">
      <stop
         style="stop-color:#14007e;stop-opacity:1;"
         offset="0"
         id="stop3031" />
    </linearGradient>
    <linearGradient
       xlink:href="#linearGradient5371"
       id="linearGradient5373"
       x1="1964"
       y1="2954.5"
       x2="4035"
       y2="2954.5"
       gradientUnits="userSpaceOnUse" />
  </defs>
  <g
     id="g463"
     transform="matrix(-0.05,-0.08660254,-0.08660254,0.05,508.96734,231.17163)">
    <path
       d="m 2730,3986 v -312 l -215,-123 -270,157 -276,-159 6,-314 260,-151 V 2827 L 1970,2675 V 2362 L 2250.4279,2202.0886 2520,2364 v 313 l 213.1885,118 3.8115,315 265,149 263,-145 5,-319 -265,-151 -6,-252 -269,-155 5,-319 263,-148 272,152 v 313 l 216,124 273,-157 270,153 v 320 l -264,151 -6,252 271,154 v 316 l -271,152 -268,-151 -220,126 -6,317 -260,147 z"
       id="path210"
       style="opacity:1;fill:url(#linearGradient5373);fill-opacity:1;fill-rule:nonzero;stroke:none;stroke-width:10;stroke-linecap:butt;stroke-linejoin:round;stroke-dasharray:none;stroke-opacity:1;paint-order:markers fill stroke" />
    <g
       aria-label="CliMAT"
       transform="matrix(-4.785875,-8.2893788,-7.0146117,4.0498872,4790.4494,4103.9843)"
       id="text1588"
       style="font-size:138.24px;font-family:'Aldo the Apache';-inkscape-font-specification:'Aldo the Apache, Normal';white-space:pre;shape-inside:url(#rect1590);display:inline;fill:#2548be;stroke-width:1.33333;stroke-linejoin:round;paint-order:markers fill stroke">
      <path
         d="m 345.31031,219.75755 v -11.88 h 20.52 v 16.875 l -13.5,13.5 h -44.01 v -84.1725 l 14.58,-13.4325 h 42.93 v 36.855 h -20.52 v -18.2925 h -16.47 v 60.5475 z"
         id="path208" />
      <path
         d="m 373.99782,238.25255 v -97.605 h 20.4525 v 79.11 h 28.62 v 18.495 z"
         id="path211" />
      <path
         d="m 452.29782,170.61755 v 67.635 h -20.4525 v -67.635 z m 0,-29.97 v 24.03 h -20.4525 v -24.03 z"
         id="path213" />
      <path
         d="m 510.48282,140.64755 h 23.625 v 97.605 h -18.9 v -60.75 l -15.1875,60.75 h -6.075 l -15.1875,-60.75 v 60.75 h -18.9 v -97.605 h 23.625 l 13.5,48.6 z"
         id="path215" />
      <path
         d="m 564.68533,238.25255 h -20.52 v -82.1475 l 15.7275,-15.4575 h 42.66 v 97.605 h -20.4525 v -32.0625 h -17.415 z m 17.415,-50.625 v -28.4175 h -17.415 v 28.4175 z"
         id="path217" />
      <path
         d="m 669.78282,159.21005 h -18.4275 v 79.0425 h -20.58751 v -79.0425 h -19.1025 v -18.5625 h 58.11751 z"
         id="path219" />
    </g>
    <g
       id="PreReleaseTag"
       transform="matrix(0.64074887,0.19535904,-0.19535904,0.64074887,-186.01108,1176.6198)">
      <path
         id="rect253"
         transform="matrix(-0.5,-0.8660254,-0.8660254,0.5,0,0)"
         d="m 1246.7951,-1217.6592 h 1728.1277 a 225,225 45 0 1 225,225.00002 v 385.22192 a 225,225 135 0 1 -225,225 H 1246.7951 a 225,225 45 0 1 -225,-225 v -385.22192 a 225,225 135 0 1 225,-225.00002 z"
         style="fill:#c20000;fill-opacity:1;stroke:none;stroke-width:10;stroke-linejoin:round;stroke-dasharray:none;stroke-opacity:1;paint-order:fill markers stroke" />
      <g
         aria-label="PRE-RELEASE"
         transform="matrix(-0.38084128,-0.65963646,-1.1369899,0.65644146,0,0)"
         id="text453"
         style="font-weight:bold;font-stretch:condensed;font-size:447.418px;font-family:Arial;-inkscape-font-specification:'Arial, Bold Condensed';stroke-width:12.4283;stroke-linejoin:round;paint-order:markers fill stroke">
        <path
           d="M 1490.2927,-447.37131 V -767.6422 h 85.2017 q 47.6255,0 62.2628,4.58778 23.3758,7.42784 38.4499,31.67755 15.2926,24.2497 15.2926,62.48122 0,34.73607 -13.1079,58.33038 -13.108,23.37584 -32.7699,32.98833 -19.6619,9.39403 -67.7244,9.39403 h -34.736 v 120.8116 z m 52.8688,-266.09137 v 90.88179 h 29.2744 q 29.4929,0 39.9792,-4.15086 10.7048,-4.15085 17.4773,-14.85567 6.7724,-10.92329 6.7724,-26.65283 0,-15.94801 -6.9909,-26.8713 -6.9909,-10.92329 -17.2588,-14.63721 -10.2679,-3.71392 -43.4747,-3.71392 z"
           id="path231" />
        <path
           d="M 1735.1929,-447.37131 V -767.6422 h 111.636 q 42.8193,0 61.1705,8.73863 18.3511,8.52017 30.1483,29.92982 11.7971,21.19119 11.7971,50.90254 0,37.57612 -18.1327,60.51503 -17.9142,22.93891 -51.121,28.83749 17.0404,12.23408 28.1821,26.87129 11.1418,14.41875 30.3668,51.99487 l 31.896,62.48122 h -63.1366 l -38.45,-69.69059 q -20.7543,-37.79459 -28.1821,-47.18862 -7.4278,-9.6125 -15.7295,-13.10795 -8.3017,-3.71392 -26.6529,-3.71392 h -10.9233 v 133.70108 z m 52.8687,-184.82208 h 39.3239 q 36.0468,0 45.8778,-3.05852 9.831,-3.27699 15.948,-12.88949 6.1171,-9.61249 6.1171,-25.5605 0,-15.2926 -6.1171,-24.46817 -6.117,-9.39403 -16.6034,-12.88948 -7.4278,-2.40313 -43.0378,-2.40313 h -41.5085 z"
           id="path233" />
        <path
           d="M 1999.9735,-447.37131 V -767.6422 h 194.8715 v 54.17952 h -142.0028 v 71.0014 h 131.9534 v 53.96105 h -131.9534 v 87.16787 h 146.809 v 53.96105 z"
           id="path235" />
        <path
           d="m 2229.3626,-532.79144 v -61.3889 h 98.965 v 61.3889 z"
           id="path237" />
        <path
           d="M 2366.7776,-447.37131 V -767.6422 h 111.636 q 42.8193,0 61.1705,8.73863 18.3511,8.52017 30.1483,29.92982 11.7971,21.19119 11.7971,50.90254 0,37.57612 -18.1327,60.51503 -17.9142,22.93891 -51.121,28.83749 17.0404,12.23408 28.1821,26.87129 11.1418,14.41875 30.3668,51.99487 l 31.896,62.48122 h -63.1366 l -38.45,-69.69059 q -20.7543,-37.79459 -28.1821,-47.18862 -7.4278,-9.6125 -15.7295,-13.10795 -8.3017,-3.71392 -26.6529,-3.71392 h -10.9233 v 133.70108 z m 52.8687,-184.82208 h 39.3239 q 36.0468,0 45.8778,-3.05852 9.831,-3.27699 15.948,-12.88949 6.1171,-9.61249 6.1171,-25.5605 0,-15.2926 -6.1171,-24.46817 -6.117,-9.39403 -16.6034,-12.88948 -7.4278,-2.40313 -43.0378,-2.40313 h -41.5085 z"
           id="path239" />
        <path
           d="M 2631.5582,-447.37131 V -767.6422 h 194.8715 v 54.17952 h -142.0028 v 71.0014 h 131.9534 v 53.96105 h -131.9534 v 87.16787 h 146.809 v 53.96105 z"
           id="path241" />
        <path
           d="m 2877.5507,-447.37131 v -317.6493 h 52.8688 v 263.68825 h 131.9533 v 53.96105 z"
           id="path243" />
        <path
           d="M 3100.3858,-447.37131 V -767.6422 h 194.8715 v 54.17952 h -142.0027 v 71.0014 h 131.9533 v 53.96105 h -131.9533 v 87.16787 h 146.809 v 53.96105 z"
           id="path245" />
        <path
           d="m 3581.6661,-447.37131 h -57.675 l -22.9389,-72.74912 h -104.8636 l -21.6281,72.74912 h -56.3642 l 102.242,-320.27089 h 56.1457 z m -97.6543,-126.71017 -36.0468,-118.84541 -35.6099,118.84541 z"
           id="path247" />
        <path
           d="m 3596.3032,-551.5795 51.7764,-6.11705 q 8.7387,61.3889 57.2381,61.3889 24.0312,0 37.7946,-12.45255 13.7633,-12.67102 13.7633,-31.24062 0,-10.92329 -4.8062,-18.56959 -4.8063,-7.6463 -14.6373,-12.45255 -9.8309,-5.02472 -47.6255,-16.6034 -33.8622,-10.2679 -49.5917,-22.28352 -15.7296,-12.01562 -25.1236,-31.45908 -9.1756,-19.66192 -9.1756,-42.1639 0,-26.2159 11.7972,-47.18862 12.0156,-20.97271 32.9883,-31.67754 20.9727,-10.70482 51.7764,-10.70482 46.3148,0 72.3122,25.12356 25.9974,25.12357 27.5267,71.87526 l -53.0872,2.84005 q -3.4955,-25.77896 -15.0741,-36.04686 -11.5787,-10.26789 -32.9884,-10.26789 -21.4096,0 -32.9883,8.9571 -11.5787,8.9571 -11.5787,22.28351 0,13.10795 10.4863,22.06505 10.4864,8.9571 48.281,19.66192 39.9792,11.57869 57.675,24.46818 17.9142,12.67101 27.3082,32.98834 9.394,20.09885 9.394,48.93634 0,41.72697 -25.7789,70.12753 -25.5605,28.40055 -80.177,28.40055 -96.5619,0 -107.4852,-109.8883 z"
           id="path249" />
        <path
           d="M 3854.5297,-447.37131 V -767.6422 h 194.8716 v 54.17952 h -142.0028 v 71.0014 h 131.9533 v 53.96105 h -131.9533 v 87.16787 h 146.809 v 53.96105 z"
           id="path251" />
      </g>
    </g>
  </g>
</svg>
