<?xml version="1.0" encoding="UTF-8" standalone="no"?>
<svg
   version="1.0"
   width="217.81274pt"
   height="83.522194pt"
   viewBox="0 0 217.81274 83.522194"
   preserveAspectRatio="xMidYMid"
   id="svg6"
   sodipodi:docname="design.svg"
   inkscape:version="1.2 (dc2aedaf03, 2022-05-15)"
   inkscape:export-filename="logo.png"
   inkscape:export-xdpi="96"
   inkscape:export-ydpi="96"
   xmlns:inkscape="http://www.inkscape.org/namespaces/inkscape"
   xmlns:sodipodi="http://sodipodi.sourceforge.net/DTD/sodipodi-0.dtd"
   xmlns="http://www.w3.org/2000/svg"
   xmlns:svg="http://www.w3.org/2000/svg">
  <defs
     id="defs10">
    <inkscape:path-effect
       effect="fillet_chamfer"
       id="path-effect5675"
       is_visible="true"
       lpeversion="1"
       nodesatellites_param="F,0,0,1,0,225,0,1 @ F,0,0,1,0,225,0,1 @ F,0,0,1,0,225,0,1 @ F,0,0,1,0,225,0,1"
       unit="px"
       method="auto"
       mode="F"
       radius="300"
       chamfer_steps="1"
       flexible="false"
       use_knot_distance="true"
       apply_no_radius="true"
       apply_with_radius="true"
       only_selected="false"
       hide_knots="false" />
    <linearGradient
       id="linearGradient4945"
       inkscape:swatch="solid">
      <stop
         style="stop-color:#000000;stop-opacity:1;"
         offset="0"
         id="stop4943" />
    </linearGradient>
    <linearGradient
       id="linearGradient3053"
       inkscape:swatch="solid">
      <stop
         style="stop-color:#120075;stop-opacity:1;"
         offset="0"
         id="stop3051" />
    </linearGradient>
    <linearGradient
       id="linearGradient3033"
       inkscape:swatch="solid">
      <stop
         style="stop-color:#14007e;stop-opacity:1;"
         offset="0"
         id="stop3031" />
    </linearGradient>
  </defs>
  <sodipodi:namedview
     id="namedview8"
     pagecolor="#000000"
     bordercolor="#ffffff"
     borderopacity="1"
     inkscape:showpageshadow="false"
     inkscape:pageopacity="1"
     inkscape:pagecheckerboard="true"
     inkscape:deskcolor="#00000e"
     inkscape:document-units="pt"
     showgrid="false"
     inkscape:zoom="0.64765625"
     inkscape:cx="264.80097"
     inkscape:cy="497.17732"
     inkscape:window-width="2498"
     inkscape:window-height="1057"
     inkscape:window-x="54"
     inkscape:window-y="-8"
     inkscape:window-maximized="1"
     inkscape:current-layer="svg6" />
  <g
     id="PreReleaseTag"
     transform="matrix(-0.05,-0.08660254,-0.08660254,0.05,-102.17946,121.76591)"
     sodipodi:insensitive="true"
     inkscape:export-filename=".\PreReleaseTag.svg"
     inkscape:export-xdpi="96"
     inkscape:export-ydpi="96">
    <path
       style="fill:#c20000;fill-opacity:1;stroke:none;stroke-width:10;stroke-linejoin:round;stroke-dasharray:none;stroke-opacity:1;paint-order:fill markers stroke"
       id="rect253"
       width="2178.1277"
       height="835.22192"
       x="1021.7951"
       y="-1217.6592"
       transform="matrix(-0.5,-0.8660254,-0.8660254,0.5,0,0)"
       inkscape:path-effect="#path-effect5675"
       d="m 1246.7951,-1217.6592 h 1728.1277 a 225,225 45 0 1 225,225.00002 v 385.22192 a 225,225 135 0 1 -225,225 H 1246.7951 a 225,225 45 0 1 -225,-225 v -385.22192 a 225,225 135 0 1 225,-225.00002 z"
       sodipodi:type="rect"
       inkscape:label="PreReleaseTagSprite"
       sodipodi:insensitive="true" />
    <g
       aria-label="PRE-RELEASE"
       transform="matrix(-0.38084128,-0.65963646,-1.1369899,0.65644146,0,0)"
       id="text453"
       style="font-weight:bold;font-stretch:condensed;font-size:447.418px;font-family:Arial;-inkscape-font-specification:'Arial, Bold Condensed';stroke-width:12.4283;stroke-linejoin:round;paint-order:markers fill stroke"
       inkscape:label="PreReleaseTagText">
      <path
         d="M 1490.2927,-447.37131 V -767.6422 h 85.2017 q 47.6255,0 62.2628,4.58778 23.3758,7.42784 38.4499,31.67755 15.2926,24.2497 15.2926,62.48122 0,34.73607 -13.1079,58.33038 -13.108,23.37584 -32.7699,32.98833 -19.6619,9.39403 -67.7244,9.39403 h -34.736 v 120.8116 z m 52.8688,-266.09137 v 90.88179 h 29.2744 q 29.4929,0 39.9792,-4.15086 10.7048,-4.15085 17.4773,-14.85567 6.7724,-10.92329 6.7724,-26.65283 0,-15.94801 -6.9909,-26.8713 -6.9909,-10.92329 -17.2588,-14.63721 -10.2679,-3.71392 -43.4747,-3.71392 z"
         id="path4378" />
      <path
         d="M 1735.1929,-447.37131 V -767.6422 h 111.636 q 42.8193,0 61.1705,8.73863 18.3511,8.52017 30.1483,29.92982 11.7971,21.19119 11.7971,50.90254 0,37.57612 -18.1327,60.51503 -17.9142,22.93891 -51.121,28.83749 17.0404,12.23408 28.1821,26.87129 11.1418,14.41875 30.3668,51.99487 l 31.896,62.48122 h -63.1366 l -38.45,-69.69059 q -20.7543,-37.79459 -28.1821,-47.18862 -7.4278,-9.6125 -15.7295,-13.10795 -8.3017,-3.71392 -26.6529,-3.71392 h -10.9233 v 133.70108 z m 52.8687,-184.82208 h 39.3239 q 36.0468,0 45.8778,-3.05852 9.831,-3.27699 15.948,-12.88949 6.1171,-9.61249 6.1171,-25.5605 0,-15.2926 -6.1171,-24.46817 -6.117,-9.39403 -16.6034,-12.88948 -7.4278,-2.40313 -43.0378,-2.40313 h -41.5085 z"
         id="path4380" />
      <path
         d="M 1999.9735,-447.37131 V -767.6422 h 194.8715 v 54.17952 h -142.0028 v 71.0014 h 131.9534 v 53.96105 h -131.9534 v 87.16787 h 146.809 v 53.96105 z"
         id="path4382" />
      <path
         d="m 2229.3626,-532.79144 v -61.3889 h 98.965 v 61.3889 z"
         id="path4384" />
      <path
         d="M 2366.7776,-447.37131 V -767.6422 h 111.636 q 42.8193,0 61.1705,8.73863 18.3511,8.52017 30.1483,29.92982 11.7971,21.19119 11.7971,50.90254 0,37.57612 -18.1327,60.51503 -17.9142,22.93891 -51.121,28.83749 17.0404,12.23408 28.1821,26.87129 11.1418,14.41875 30.3668,51.99487 l 31.896,62.48122 h -63.1366 l -38.45,-69.69059 q -20.7543,-37.79459 -28.1821,-47.18862 -7.4278,-9.6125 -15.7295,-13.10795 -8.3017,-3.71392 -26.6529,-3.71392 h -10.9233 v 133.70108 z m 52.8687,-184.82208 h 39.3239 q 36.0468,0 45.8778,-3.05852 9.831,-3.27699 15.948,-12.88949 6.1171,-9.61249 6.1171,-25.5605 0,-15.2926 -6.1171,-24.46817 -6.117,-9.39403 -16.6034,-12.88948 -7.4278,-2.40313 -43.0378,-2.40313 h -41.5085 z"
         id="path4386" />
      <path
         d="M 2631.5582,-447.37131 V -767.6422 h 194.8715 v 54.17952 h -142.0028 v 71.0014 h 131.9534 v 53.96105 h -131.9534 v 87.16787 h 146.809 v 53.96105 z"
         id="path4388" />
      <path
         d="m 2877.5507,-447.37131 v -317.6493 h 52.8688 v 263.68825 h 131.9533 v 53.96105 z"
         id="path4390" />
      <path
         d="M 3100.3858,-447.37131 V -767.6422 h 194.8715 v 54.17952 h -142.0027 v 71.0014 h 131.9533 v 53.96105 h -131.9533 v 87.16787 h 146.809 v 53.96105 z"
         id="path4392" />
      <path
         d="m 3581.6661,-447.37131 h -57.675 l -22.9389,-72.74912 h -104.8636 l -21.6281,72.74912 h -56.3642 l 102.242,-320.27089 h 56.1457 z m -97.6543,-126.71017 -36.0468,-118.84541 -35.6099,118.84541 z"
         id="path4394" />
      <path
         d="m 3596.3032,-551.5795 51.7764,-6.11705 q 8.7387,61.3889 57.2381,61.3889 24.0312,0 37.7946,-12.45255 13.7633,-12.67102 13.7633,-31.24062 0,-10.92329 -4.8062,-18.56959 -4.8063,-7.6463 -14.6373,-12.45255 -9.8309,-5.02472 -47.6255,-16.6034 -33.8622,-10.2679 -49.5917,-22.28352 -15.7296,-12.01562 -25.1236,-31.45908 -9.1756,-19.66192 -9.1756,-42.1639 0,-26.2159 11.7972,-47.18862 12.0156,-20.97271 32.9883,-31.67754 20.9727,-10.70482 51.7764,-10.70482 46.3148,0 72.3122,25.12356 25.9974,25.12357 27.5267,71.87526 l -53.0872,2.84005 q -3.4955,-25.77896 -15.0741,-36.04686 -11.5787,-10.26789 -32.9884,-10.26789 -21.4096,0 -32.9883,8.9571 -11.5787,8.9571 -11.5787,22.28351 0,13.10795 10.4863,22.06505 10.4864,8.9571 48.281,19.66192 39.9792,11.57869 57.675,24.46818 17.9142,12.67101 27.3082,32.98834 9.394,20.09885 9.394,48.93634 0,41.72697 -25.7789,70.12753 -25.5605,28.40055 -80.177,28.40055 -96.5619,0 -107.4852,-109.8883 z"
         id="path4396" />
      <path
         d="M 3854.5297,-447.37131 V -767.6422 h 194.8716 v 54.17952 h -142.0028 v 71.0014 h 131.9533 v 53.96105 h -131.9533 v 87.16787 h 146.809 v 53.96105 z"
         id="path4398" />
    </g>
  </g>
</svg>
