<?xml version="1.0" encoding="UTF-8" standalone="no"?>
<svg
   version="1.0"
   width="563pt"
   height="486pt"
   viewBox="0 0 563 486"
   preserveAspectRatio="xMidYMid"
   id="svg6"
   sodipodi:docname="design.svg"
   inkscape:version="1.2 (dc2aedaf03, 2022-05-15)"
   inkscape:export-filename="logo.png"
   inkscape:export-xdpi="96"
   inkscape:export-ydpi="96"
   xmlns:inkscape="http://www.inkscape.org/namespaces/inkscape"
   xmlns:sodipodi="http://sodipodi.sourceforge.net/DTD/sodipodi-0.dtd"
   xmlns:xlink="http://www.w3.org/1999/xlink"
   xmlns="http://www.w3.org/2000/svg"
   xmlns:svg="http://www.w3.org/2000/svg">
  <defs
     id="defs10">
    <linearGradient
       inkscape:collect="always"
       id="linearGradient943">
      <stop
         style="stop-color:#b23e01;stop-opacity:1;"
         offset="0.40000001"
         id="stop939" />
      <stop
         style="stop-color:#a76600;stop-opacity:1;"
         offset="0.60148513"
         id="stop941" />
    </linearGradient>
    <rect
       x="304.94571"
       y="98.817856"
       width="520.33777"
       height="219.25211"
       id="rect1590" />
    <linearGradient
       inkscape:collect="always"
       id="linearGradient5371">
      <stop
         style="stop-color:#2548be;stop-opacity:1;"
         offset="0.40000001"
         id="stop5375" />
      <stop
         style="stop-color:#2596be;stop-opacity:1;"
         offset="0.60148513"
         id="stop5367" />
    </linearGradient>
    <linearGradient
       id="linearGradient3053"
       inkscape:swatch="solid">
      <stop
         style="stop-color:#120075;stop-opacity:1;"
         offset="0"
         id="stop3051" />
    </linearGradient>
    <linearGradient
       id="linearGradient3033"
       inkscape:swatch="solid">
      <stop
         style="stop-color:#14007e;stop-opacity:1;"
         offset="0"
         id="stop3031" />
    </linearGradient>
    <linearGradient
       inkscape:collect="always"
       xlink:href="#linearGradient5371"
       id="linearGradient5373"
       x1="1964"
       y1="2954.5"
       x2="4035"
       y2="2954.5"
       gradientUnits="userSpaceOnUse" />
    <rect
       x="304.94571"
       y="98.817856"
       width="520.33777"
       height="219.25211"
       id="rect1590-4" />
    <linearGradient
       inkscape:collect="always"
       xlink:href="#linearGradient943"
       id="linearGradient5373-3"
       x1="1964"
       y1="2954.5"
       x2="4035"
       y2="2954.5"
       gradientUnits="userSpaceOnUse"
       gradientTransform="translate(-2088.0058,1201.9015)" />
  </defs>
  <sodipodi:namedview
     id="namedview8"
     pagecolor="#000000"
     bordercolor="#ffffff"
     borderopacity="1"
     inkscape:showpageshadow="false"
     inkscape:pageopacity="1"
     inkscape:pagecheckerboard="true"
     inkscape:deskcolor="#00000e"
     inkscape:document-units="pt"
     showgrid="false"
     inkscape:zoom="0.91592425"
     inkscape:cx="-3.27538"
     inkscape:cy="229.2766"
     inkscape:window-width="2560"
     inkscape:window-height="1009"
     inkscape:window-x="-8"
     inkscape:window-y="-8"
     inkscape:window-maximized="1"
     inkscape:current-layer="g4" />
  <g
     transform="matrix(-0.05,-0.08660254,-0.08660254,0.05,511.95421,233.12883)"
     fill="#2596be"
     stroke="none"
     id="g4">
    <path
       d="m 2730,3986 v -312 l -215,-123 -270,157 -276,-159 6,-314 260,-151 V 2827 L 1970,2675 V 2362 L 2250.4279,2202.0886 2520,2364 v 313 l 213.1885,118 3.8115,315 265,149 263,-145 5,-319 -265,-151 -6,-252 -269,-155 5,-319 263,-148 272,152 v 313 l 216,124 273,-157 270,153 v 320 l -264,151 -6,252 271,154 v 316 l -271,152 -268,-151 -220,126 -6,317 -260,147 z"
       id="path210"
       sodipodi:nodetypes="ccccccccccccccccccccccccccccccccccccccc"
       style="opacity:1;fill:url(#linearGradient5373);fill-opacity:1;fill-rule:nonzero;stroke:none;stroke-width:10;stroke-linecap:butt;stroke-linejoin:round;stroke-dasharray:none;stroke-opacity:1;paint-order:markers fill stroke" />
    <text
       xml:space="preserve"
       transform="matrix(-4.785875,-8.2893788,-7.0146117,4.0498872,4790.4494,4103.9843)"
       id="text1588"
       style="font-style:normal;font-variant:normal;font-weight:normal;font-stretch:normal;font-size:138.24px;font-family:'Aldo the Apache';-inkscape-font-specification:'Aldo the Apache, Normal';font-variant-ligatures:normal;font-variant-caps:normal;font-variant-numeric:normal;font-variant-east-asian:normal;white-space:pre;shape-inside:url(#rect1590);display:inline;fill:#2548be;fill-opacity:1;stroke-width:1.33333;stroke-linejoin:round;paint-order:markers fill stroke"><tspan
         x="304.94531"
         y="238.25255"
         id="tspan997">CliMAT</tspan></text>
    <path
       d="m 641.99416,5187.9015 v -312 l -215,-123 -270,157 -276,-159 6,-314 260,-151 v -257 l -265,-152 v -313 l 280.4279,-159.9114 269.5721,161.9114 v 313 l 213.1885,118 3.8115,315 265,149 263.00004,-145 5,-319 -265.00004,-151 -6,-252 -269,-155 5,-319 263,-148 272.00004,152 v 313 l 216,124 273,-157 270,153 v 320 l -264,151 -6,252 271,154 v 316 l -271,152 -268,-151 -220,126 -6,317 -260.00004,147 z"
       id="path210-6"
       sodipodi:nodetypes="ccccccccccccccccccccccccccccccccccccccc"
       style="fill:url(#linearGradient5373-3);fill-opacity:1;fill-rule:nonzero;stroke:none;stroke-width:10;stroke-linecap:butt;stroke-linejoin:round;stroke-dasharray:none;stroke-opacity:1;paint-order:markers fill stroke" />
    <text
       xml:space="preserve"
       transform="matrix(-4.785875,-8.2893788,-7.0146117,4.0498872,2702.4436,5305.8858)"
       id="text1588-9"
       style="font-style:normal;font-variant:normal;font-weight:normal;font-stretch:normal;font-size:138.24px;font-family:'Aldo the Apache';-inkscape-font-specification:'Aldo the Apache, Normal';font-variant-ligatures:normal;font-variant-caps:normal;font-variant-numeric:normal;font-variant-east-asian:normal;white-space:pre;shape-inside:url(#rect1590-4);display:inline;fill:#b23e01;fill-opacity:1;stroke-width:1.33333;stroke-linejoin:round;paint-order:markers fill stroke"><tspan
         x="304.94531"
         y="238.25255"
         id="tspan999">CliMAT</tspan></text>
  </g>
</svg>
